<svg width="720" height="540" viewBox="0 0 720 540" fill="none" xmlns="http://www.w3.org/2000/svg">
  <rect width="720" height="540" fill="white"/>
  <rect x="48" y="48" width="624" height="444" rx="24" stroke="#111111" stroke-opacity="0.15" stroke-width="2"/>
  <path d="M120 160C210 120 300 120 390 160C480 200 570 200 640 160" stroke="#111111" stroke-opacity="0.5" stroke-width="2"/>
  <path d="M120 240C210 200 300 200 390 240C480 280 570 280 640 240" stroke="#111111" stroke-opacity="0.35" stroke-width="2"/>
  <path d="M120 320C210 280 300 280 390 320C480 360 570 360 640 320" stroke="#111111" stroke-opacity="0.25" stroke-width="2"/>
  <circle cx="180" cy="400" r="46" stroke="#111111" stroke-opacity="0.35" stroke-width="2"/>
  <circle cx="540" cy="400" r="46" stroke="#111111" stroke-opacity="0.2" stroke-width="2"/>
  <rect x="300" y="360" width="120" height="80" rx="16" stroke="#111111" stroke-opacity="0.3" stroke-width="2"/>
</svg>
